<svg width="13" height="13" viewBox="0 0 13 13" fill="none" xmlns="http://www.w3.org/2000/svg">
<path d="M6.1311 11.0531L2.37508 4.54746C2.35502 4.51272 2.36814 4.46826 2.40385 4.44997C3.69433 3.78906 5.23829 3.86094 6.46179 4.63888L6.51405 4.67211C6.53668 4.6865 6.56544 4.68711 6.58867 4.6737L8.99847 3.2824C9.00609 3.27801 9.0089 3.26839 9.00485 3.26059L8.84198 2.94641C8.3138 1.92755 9.73688 1.04151 10.4181 1.96508L12.5316 5.62585C12.5324 5.62716 12.533 5.62857 12.5333 5.63003C12.759 6.57403 11.5495 7.17019 10.9383 6.41617L10.5573 5.94604C10.5517 5.93917 10.5419 5.93737 10.5343 5.94179L8.12325 7.3338C8.10076 7.34678 8.08784 7.37163 8.09014 7.3975L8.09624 7.46607C8.22653 8.93224 7.49448 10.3409 6.21973 11.0768C6.1887 11.0947 6.14902 11.0841 6.1311 11.0531Z" fill="#30B4FF" stroke="#30B4FF" stroke-width="0.764706" stroke-linecap="round"/>
<path d="M4.271 7.83154L1.61711 9.36377" stroke="#30B4FF" stroke-width="0.764706" stroke-linecap="round"/>
</svg>
