<svg width="15" height="13" viewBox="0 0 15 13" fill="none" xmlns="http://www.w3.org/2000/svg">
<path d="M7.1311 11.0531L3.37508 4.54746C3.35502 4.51272 3.36814 4.46826 3.40385 4.44997C4.69433 3.78906 6.23829 3.86094 7.46179 4.63888L7.51405 4.67211C7.53668 4.6865 7.56544 4.68711 7.58867 4.6737L9.99847 3.2824C10.0061 3.27801 10.0089 3.26839 10.0048 3.26059L9.84198 2.94641C9.3138 1.92755 10.7369 1.04151 11.4181 1.96508L13.5316 5.62585C13.5324 5.62716 13.533 5.62857 13.5333 5.63003C13.759 6.57403 12.5495 7.17019 11.9383 6.41617L11.5573 5.94604C11.5517 5.93917 11.5419 5.93737 11.5343 5.94179L9.12325 7.3338C9.10076 7.34678 9.08784 7.37163 9.09014 7.3975L9.09624 7.46607C9.22653 8.93224 8.49448 10.3409 7.21973 11.0768C7.1887 11.0947 7.14902 11.0841 7.1311 11.0531Z" fill="#30B4FF" stroke="#30B4FF" stroke-width="0.764706" stroke-linecap="round"/>
<path d="M5.271 7.83154L2.61711 9.36377" stroke="#30B4FF" stroke-width="0.764706" stroke-linecap="round"/>
</svg>
