<svg width="14" height="14" viewBox="0 0 14 14" fill="none" xmlns="http://www.w3.org/2000/svg">
<path d="M3.79068 1.00004H2.53485C2.12791 1.00044 1.73771 1.17027 1.45 1.47198C1.16221 1.77381 1.00036 2.18295 1 2.60981V11.3903C1.00037 11.8171 1.16221 12.2263 1.45 12.5281C1.73769 12.8299 2.12791 12.9996 2.53485 13H8.21217C8.42484 12.9995 8.635 12.9524 8.82926 12.8617C8.83925 12.8575 8.84738 12.851 8.85691 12.8461C9.02034 12.7682 9.16946 12.6606 9.29739 12.5284L12.5504 9.11684C12.8392 8.8156 13.0011 8.40567 13 7.97841V2.60977C12.9996 2.18288 12.8378 1.77376 12.55 1.47194C12.2623 1.17022 11.8721 1.00038 11.4651 1H10.2093L9.37209 1L7.41854 1H6.58132H4.62776L3.79068 1.00004ZM11.9586 8.49603L9.09317 11.5012V9.04885C9.0941 8.96849 9.15606 8.90352 9.23268 8.90254H10.9071C11.0567 8.90254 11.1949 8.81885 11.2697 8.68303C11.3444 8.54721 11.3444 8.37983 11.2697 8.24401C11.1949 8.10818 11.0567 8.02449 10.9071 8.02449H9.23268C8.97376 8.02479 8.72549 8.13288 8.54235 8.32486C8.3593 8.51693 8.25623 8.77731 8.25595 9.04885V12.113C8.241 12.114 8.22735 12.1221 8.21231 12.1221H2.53498C2.35006 12.1219 2.1727 12.0448 2.0419 11.9076C1.91111 11.7704 1.83755 11.5844 1.83736 11.3905V4.8051H12.1632V7.97862L12.1631 7.97852C12.1637 8.17285 12.09 8.35925 11.9587 8.49615L11.9586 8.49603ZM6.5815 1.87804H7.41872H9.37228H10.2093H10.2095H11.4653C11.6503 1.87824 11.8276 1.95536 11.9584 2.09256C12.0892 2.22976 12.1628 2.41576 12.163 2.60978V3.92686H1.83736V2.60978C1.83755 2.41575 1.91108 2.22976 2.0419 2.09256C2.17272 1.95536 2.35007 1.87824 2.53498 1.87804H3.79081H4.62803H6.5815Z" fill="#BBBBBB" stroke="#BBBBBB" stroke-width="0.5"/>
</svg>
