<svg width="9" height="13" viewBox="0 0 9 13" fill="none" xmlns="http://www.w3.org/2000/svg">
<path d="M8.94664 6.24253L7.54778 3.24062L8.95797 0.515535C9.01445 0.406121 9.01001 0.275019 8.94594 0.169645C8.88177 0.0643685 8.76743 9.84764e-05 8.64411 9.84764e-05L0.353284 0C0.15811 0 0 0.15811 0 0.353284V11.835C0 12.0302 0.15811 12.1883 0.353284 12.1883C0.548459 12.1883 0.706569 12.0302 0.706569 11.835V6.78306H8.64386C8.64494 6.78316 8.64603 6.78316 8.64672 6.78306C8.84189 6.78306 9 6.62495 9 6.42977C9 6.36097 8.98048 6.297 8.94657 6.24268L8.94664 6.24253ZM0.706532 6.07623V0.706314H8.06343L6.84023 3.07009C6.79005 3.16728 6.78749 3.28232 6.83382 3.38158L8.08955 6.07639L0.706532 6.07623Z" fill="#C6C6C6"/>
</svg>
