<svg width="12" height="10" viewBox="0 0 12 10" fill="none" xmlns="http://www.w3.org/2000/svg">
<mask id="path-1-inside-1_876_563" fill="white">
<path d="M0 2.25932H11.1851C11.6351 2.25932 12 2.62419 12 3.07427V8.95331C12 9.40339 11.6351 9.76825 11.1851 9.76825H0.814948C0.364865 9.76825 0 9.40339 0 8.95331V2.25932Z"/>
</mask>
<path d="M0 2.25932H11.1851C11.6351 2.25932 12 2.62419 12 3.07427V8.95331C12 9.40339 11.6351 9.76825 11.1851 9.76825H0.814948C0.364865 9.76825 0 9.40339 0 8.95331V2.25932Z" fill="#939AFF" stroke="#939AFF" stroke-width="2" mask="url(#path-1-inside-1_876_563)"/>
<path d="M0.500109 1.04666L0.500026 2.68134L7.20936 2.68135L5.73531 0.84925C5.67552 0.774945 5.58529 0.731731 5.48992 0.731731H0.815057C0.641123 0.731731 0.500118 0.872728 0.500109 1.04666Z" stroke="#939AFF"/>
</svg>
