<svg width="13" height="13" viewBox="0 0 13 13" fill="none" xmlns="http://www.w3.org/2000/svg">
<path d="M0.261683 4.56526L6.11 8.02113C6.19326 8.07064 6.28672 8.09512 6.38054 8.09512C6.47419 8.09512 6.56746 8.07046 6.65109 8.02113L12.4994 4.56526C12.6611 4.46976 12.7605 4.29546 12.7605 4.10743C12.7605 3.91941 12.6611 3.74529 12.4994 3.64961L6.65109 0.193737C6.48383 0.0950891 6.2767 0.0950891 6.11016 0.193737L0.261844 3.64961C0.0997764 3.74547 0.000573753 3.91959 0.000573753 4.10762C0.000573753 4.29546 0.0998 4.46958 0.261683 4.56526ZM6.38058 1.26922L11.1836 4.1076L6.38058 6.94579L1.57708 4.1076L6.38058 1.26922ZM12.4995 6.04234L12.2289 5.88268L6.38062 9.33856L0.532301 5.88268L0.261759 6.04271C0.0996909 6.13802 0.000488281 6.31214 0.000488281 6.50016C0.000488281 6.68819 0.0996913 6.86231 0.261574 6.95799L6.10989 10.4139C6.19315 10.4634 6.28661 10.4878 6.38043 10.4878C6.47408 10.4878 6.56735 10.4632 6.65098 10.4139L12.4993 6.95799C12.661 6.86249 12.7604 6.68819 12.7604 6.50016C12.7606 6.31214 12.6612 6.13802 12.4995 6.04234ZM12.4995 8.43493L12.2289 8.27509L6.38062 11.731L0.532301 8.27509L0.261759 8.43511C0.0996909 8.53061 0.000488281 8.70473 0.000488281 8.89257C0.000488281 9.08059 0.0996913 9.25471 0.261574 9.35039L6.10989 12.8063C6.19315 12.8558 6.28661 12.8803 6.38043 12.8803C6.47408 12.8803 6.56735 12.8556 6.65098 12.8063L12.4993 9.35039C12.661 9.2549 12.7604 9.08059 12.7604 8.89257C12.7606 8.70473 12.6612 8.53061 12.4995 8.43493Z" fill="#BBBBBB"/>
</svg>
