<svg width="20" height="9" viewBox="0 0 20 9" fill="none" xmlns="http://www.w3.org/2000/svg">
<path d="M2.44138 8.76991C1.31339 8.76991 0.585647 8.0543 0.585647 6.93843C0.585647 5.76192 1.28913 5.07057 2.67183 5.07057H3.38745V3.73638H2.67183C1.28913 3.73638 0.585647 3.04502 0.585647 1.86851C0.585647 0.752644 1.31339 0.0370326 2.44138 0.0370326C3.79983 0.0370326 4.23648 0.886062 4.23648 1.9049V2.91161H5.57067V1.9049C5.57067 0.886062 6.00731 0.0370326 7.36576 0.0370326C8.49375 0.0370326 9.22149 0.752644 9.22149 1.86851C9.22149 3.04502 8.51801 3.73638 7.13531 3.73638H6.4197V5.07057H7.13531C8.51801 5.07057 9.22149 5.76192 9.22149 6.93843C9.22149 8.0543 8.49375 8.76991 7.36576 8.76991C6.00731 8.76991 5.57067 7.92088 5.57067 6.90205V5.89534H4.23648V6.90205C4.23648 7.92088 3.79983 8.76991 2.44138 8.76991ZM6.4197 1.88064V2.91161H7.13531C7.99647 2.91161 8.36034 2.55986 8.36034 1.86851C8.36034 1.1529 7.93582 0.873934 7.36576 0.873934C6.73505 0.873934 6.4197 1.26206 6.4197 1.88064ZM2.67183 2.91161H3.38745V1.88064C3.38745 1.26206 3.07209 0.873934 2.44138 0.873934C1.87132 0.873934 1.44681 1.1529 1.44681 1.86851C1.44681 2.55986 1.81068 2.91161 2.67183 2.91161ZM4.23648 5.07057H5.57067V3.73638H4.23648V5.07057ZM2.44138 7.93301C3.07209 7.93301 3.38745 7.54488 3.38745 6.9263V5.89534H2.67183C1.81068 5.89534 1.44681 6.24708 1.44681 6.93843C1.44681 7.65404 1.87132 7.93301 2.44138 7.93301ZM6.4197 6.9263C6.4197 7.54488 6.73505 7.93301 7.36576 7.93301C7.93582 7.93301 8.36034 7.65404 8.36034 6.93843C8.36034 6.24708 7.99647 5.89534 7.13531 5.89534H6.4197V6.9263ZM16.0793 8.91546C15.4567 8.91546 14.9109 8.8063 14.4419 8.58798C13.9729 8.36966 13.605 8.05834 13.3382 7.65404C13.0794 7.24974 12.946 6.76863 12.9379 6.21069H14.2963C14.3044 6.66351 14.4621 7.04759 14.7694 7.36295C15.0766 7.6783 15.5092 7.83598 16.0672 7.83598C16.5604 7.83598 16.9445 7.71873 17.2194 7.48424C17.5024 7.24166 17.6439 6.93439 17.6439 6.56243C17.6439 6.26325 17.5752 6.02067 17.4378 5.83469C17.3084 5.64872 17.1264 5.49508 16.892 5.37379C16.6655 5.2525 16.4027 5.14334 16.1036 5.04631C15.8044 4.94928 15.489 4.84416 15.1575 4.73096C14.5025 4.51263 14.0093 4.22962 13.6778 3.88193C13.3543 3.53423 13.1926 3.07737 13.1926 2.51135C13.1845 2.03427 13.2937 1.61785 13.5201 1.26206C13.7546 0.906277 14.078 0.631353 14.4904 0.437289C14.9109 0.23514 15.4001 0.134065 15.958 0.134065C16.5079 0.134065 16.989 0.23514 17.4014 0.437289C17.8218 0.639439 18.1493 0.922449 18.3838 1.28632C18.6183 1.6421 18.7396 2.05853 18.7477 2.53561H17.3892C17.3892 2.31728 17.3326 2.11109 17.2194 1.91703C17.1062 1.71488 16.9405 1.54911 16.7221 1.41974C16.5038 1.29036 16.237 1.22567 15.9216 1.22567C15.5173 1.21759 15.1818 1.31866 14.9149 1.5289C14.6562 1.73914 14.5268 2.03023 14.5268 2.40219C14.5268 2.73371 14.6238 2.98842 14.8179 3.16631C15.012 3.34421 15.2788 3.4938 15.6184 3.61509C15.958 3.72829 16.3461 3.86171 16.7828 4.01534C17.2033 4.15281 17.5793 4.31857 17.9108 4.51263C18.2423 4.7067 18.5051 4.96141 18.6992 5.27676C18.9013 5.59211 19.0024 5.99237 19.0024 6.47753C19.0024 6.90609 18.8932 7.30635 18.6749 7.6783C18.4566 8.04217 18.1291 8.34135 17.6925 8.57585C17.2558 8.80226 16.7181 8.91546 16.0793 8.91546Z" fill="#7B8388"/>
</svg>
