<svg width="22" height="11" viewBox="0 0 22 11" fill="none" xmlns="http://www.w3.org/2000/svg">
<path d="M2.48045 10.0835C1.17845 10.0835 0.338453 9.2575 0.338453 7.9695C0.338453 6.6115 1.15045 5.8135 2.74645 5.8135H3.57245V4.2735H2.74645C1.15045 4.2735 0.338453 3.4755 0.338453 2.1175C0.338453 0.829496 1.17845 0.00349569 2.48045 0.00349569C4.04845 0.00349569 4.55245 0.983496 4.55245 2.1595V3.3215H6.09245V2.1595C6.09245 0.983496 6.59645 0.00349569 8.16445 0.00349569C9.46645 0.00349569 10.3065 0.829496 10.3065 2.1175C10.3065 3.4755 9.49445 4.2735 7.89845 4.2735H7.07245V5.8135H7.89845C9.49445 5.8135 10.3065 6.6115 10.3065 7.9695C10.3065 9.2575 9.46645 10.0835 8.16445 10.0835C6.59645 10.0835 6.09245 9.1035 6.09245 7.9275V6.7655H4.55245V7.9275C4.55245 9.1035 4.04845 10.0835 2.48045 10.0835ZM7.07245 2.1315V3.3215H7.89845C8.89245 3.3215 9.31245 2.9155 9.31245 2.1175C9.31245 1.2915 8.82245 0.969496 8.16445 0.969496C7.43645 0.969496 7.07245 1.4175 7.07245 2.1315ZM2.74645 3.3215H3.57245V2.1315C3.57245 1.4175 3.20845 0.969496 2.48045 0.969496C1.82245 0.969496 1.33245 1.2915 1.33245 2.1175C1.33245 2.9155 1.75245 3.3215 2.74645 3.3215ZM4.55245 5.8135H6.09245V4.2735H4.55245V5.8135ZM2.48045 9.1175C3.20845 9.1175 3.57245 8.6695 3.57245 7.9555V6.7655H2.74645C1.75245 6.7655 1.33245 7.1715 1.33245 7.9695C1.33245 8.7955 1.82245 9.1175 2.48045 9.1175ZM7.07245 7.9555C7.07245 8.6695 7.43645 9.1175 8.16445 9.1175C8.82245 9.1175 9.31245 8.7955 9.31245 7.9695C9.31245 7.1715 8.89245 6.7655 7.89845 6.7655H7.07245V7.9555ZM16.9315 10.0835H15.4335V0.0874954H21.0615V1.3755H16.9315V4.6375H20.7955V5.9255H16.9315V10.0835Z" fill="#7B8388"/>
</svg>
