<svg width="24" height="11" viewBox="0 0 24 11" fill="none" xmlns="http://www.w3.org/2000/svg">
<path d="M2.35155 10.0835C1.04955 10.0835 0.209546 9.2575 0.209546 7.9695C0.209546 6.6115 1.02155 5.8135 2.61755 5.8135H3.44355V4.2735H2.61755C1.02155 4.2735 0.209546 3.4755 0.209546 2.1175C0.209546 0.829496 1.04955 0.00349569 2.35155 0.00349569C3.91955 0.00349569 4.42355 0.983496 4.42355 2.1595V3.3215H5.96355V2.1595C5.96355 0.983496 6.46755 0.00349569 8.03555 0.00349569C9.33755 0.00349569 10.1775 0.829496 10.1775 2.1175C10.1775 3.4755 9.36555 4.2735 7.76955 4.2735H6.94355V5.8135H7.76955C9.36555 5.8135 10.1775 6.6115 10.1775 7.9695C10.1775 9.2575 9.33755 10.0835 8.03555 10.0835C6.46755 10.0835 5.96355 9.1035 5.96355 7.9275V6.7655H4.42355V7.9275C4.42355 9.1035 3.91955 10.0835 2.35155 10.0835ZM6.94355 2.1315V3.3215H7.76955C8.76355 3.3215 9.18355 2.9155 9.18355 2.1175C9.18355 1.2915 8.69355 0.969496 8.03555 0.969496C7.30755 0.969496 6.94355 1.4175 6.94355 2.1315ZM2.61755 3.3215H3.44355V2.1315C3.44355 1.4175 3.07955 0.969496 2.35155 0.969496C1.69355 0.969496 1.20355 1.2915 1.20355 2.1175C1.20355 2.9155 1.62355 3.3215 2.61755 3.3215ZM4.42355 5.8135H5.96355V4.2735H4.42355V5.8135ZM2.35155 9.1175C3.07955 9.1175 3.44355 8.6695 3.44355 7.9555V6.7655H2.61755C1.62355 6.7655 1.20355 7.1715 1.20355 7.9695C1.20355 8.7955 1.69355 9.1175 2.35155 9.1175ZM6.94355 7.9555C6.94355 8.6695 7.30755 9.1175 8.03555 9.1175C8.69355 9.1175 9.18355 8.7955 9.18355 7.9695C9.18355 7.1715 8.76355 6.7655 7.76955 6.7655H6.94355V7.9555ZM23.5086 10.0835H21.6746L16.6206 2.0055H16.5646C16.5739 2.19216 16.5833 2.39283 16.5926 2.6075C16.6113 2.82216 16.6253 3.05083 16.6346 3.2935C16.6439 3.52683 16.6533 3.7695 16.6626 4.0215C16.6719 4.26416 16.6766 4.5115 16.6766 4.7635V10.0835H15.3046V0.0874954H17.1246L22.1646 8.1235H22.2066C22.1973 7.9835 22.1879 7.81083 22.1786 7.6055C22.1693 7.39083 22.1599 7.16216 22.1506 6.9195C22.1506 6.67683 22.1459 6.4295 22.1366 6.1775C22.1273 5.9255 22.1179 5.6875 22.1086 5.4635V0.0874954H23.5086V10.0835Z" fill="#7B8388"/>
</svg>
