<svg width="14" height="15" viewBox="0 0 14 15" fill="none" xmlns="http://www.w3.org/2000/svg">
<path fill-rule="evenodd" clip-rule="evenodd" d="M10.1425 6.21233C10.1425 8.56826 8.20534 10.5066 5.78046 10.5066C3.35557 10.5066 1.41845 8.56826 1.41845 6.21233C1.41845 3.85641 3.35557 1.91809 5.78046 1.91809C8.20534 1.91809 10.1425 3.85641 10.1425 6.21233ZM9.2415 10.7883C8.27665 11.5022 7.07852 11.925 5.78046 11.925C2.588 11.925 0 9.36737 0 6.21233C0 3.0573 2.588 0.499638 5.78046 0.499638C8.97292 0.499638 11.5609 3.0573 11.5609 6.21233C11.5609 7.57621 11.0773 8.82845 10.2703 9.81071L13.7896 13.2865C14.0683 13.5618 14.071 14.0108 13.7958 14.2895C13.5206 14.5682 13.0715 14.571 12.7928 14.2957L9.2415 10.7883Z" fill="#BBBBBB"/>
</svg>
