<svg width="14" height="11" viewBox="0 0 14 11" fill="none" xmlns="http://www.w3.org/2000/svg">
<path d="M4.46716 1.76667H13.0005M4.46716 5.5H13.0005M4.46716 9.23333H13.0005M1.26715 1.76667H1.27213V1.77236H1.26715V1.76667ZM1.53382 1.76667C1.53382 1.83739 1.50573 1.90522 1.45572 1.95523C1.40571 2.00524 1.33788 2.03333 1.26715 2.03333C1.19643 2.03333 1.1286 2.00524 1.07859 1.95523C1.02858 1.90522 1.00049 1.83739 1.00049 1.76667C1.00049 1.69594 1.02858 1.62811 1.07859 1.5781C1.1286 1.5281 1.19643 1.5 1.26715 1.5C1.33788 1.5 1.40571 1.5281 1.45572 1.5781C1.50573 1.62811 1.53382 1.69594 1.53382 1.76667ZM1.26715 5.5H1.27213V5.50569H1.26715V5.5ZM1.53382 5.5C1.53382 5.57072 1.50573 5.63855 1.45572 5.68856C1.40571 5.73857 1.33788 5.76667 1.26715 5.76667C1.19643 5.76667 1.1286 5.73857 1.07859 5.68856C1.02858 5.63855 1.00049 5.57072 1.00049 5.5C1.00049 5.42928 1.02858 5.36145 1.07859 5.31144C1.1286 5.26143 1.19643 5.23333 1.26715 5.23333C1.33788 5.23333 1.40571 5.26143 1.45572 5.31144C1.50573 5.36145 1.53382 5.42928 1.53382 5.5ZM1.26715 9.23333H1.27213V9.23902H1.26715V9.23333ZM1.53382 9.23333C1.53382 9.30406 1.50573 9.37189 1.45572 9.4219C1.40571 9.47191 1.33788 9.5 1.26715 9.5C1.19643 9.5 1.1286 9.47191 1.07859 9.4219C1.02858 9.37189 1.00049 9.30406 1.00049 9.23333C1.00049 9.16261 1.02858 9.09478 1.07859 9.04477C1.1286 8.99476 1.19643 8.96667 1.26715 8.96667C1.33788 8.96667 1.40571 8.99476 1.45572 9.04477C1.50573 9.09478 1.53382 9.16261 1.53382 9.23333Z" stroke="#BBBBBB" stroke-width="1.4" stroke-linecap="round" stroke-linejoin="round"/>
</svg>
