<svg width="12" height="12" viewBox="0 0 12 12" fill="none" xmlns="http://www.w3.org/2000/svg">
<path d="M5.16658 7.67414C5.01563 7.67414 4.86468 7.61657 4.74963 7.50143L2.56392 5.31563C2.33355 5.08525 2.33355 4.71202 2.56392 4.48166C2.79392 4.25157 3.16761 4.25157 3.39779 4.48166L5.16674 6.25061L10.9933 0.423791C11.2233 0.193697 11.597 0.193697 11.8272 0.423791C12.0576 0.654164 12.0576 1.0274 11.8272 1.25776L5.58324 7.50148C5.46838 7.61652 5.31724 7.67409 5.16639 7.67409L5.16658 7.67414Z" fill="#7B8388"/>
<path d="M10.1718 11.2843H0.589753C0.264044 11.2843 0 11.0203 0 10.6946V1.11234C0 0.786722 0.264044 0.522583 0.589753 0.522583H7.19561C7.52123 0.522583 7.78536 0.786627 7.78536 1.11234C7.78536 1.43805 7.52132 1.70209 7.19561 1.70209H1.17951V10.1048H9.58224L9.58234 5.90346C9.58234 5.57784 9.84638 5.3137 10.1721 5.3137C10.4978 5.3137 10.7618 5.57775 10.7618 5.90346V10.6946C10.7617 11.0203 10.4973 11.2843 10.1718 11.2843Z" fill="#7B8388"/>
</svg>
