<svg width="45" height="19" viewBox="0 0 45 19" fill="none" xmlns="http://www.w3.org/2000/svg">
<circle cx="22.9076" cy="1.90765" r="1.90765" fill="#FFD976"/>
<path fill-rule="evenodd" clip-rule="evenodd" d="M24.0373 5.54801C24.491 5.27433 25.0053 5.25519 25.4418 5.34732L25.5236 5.36459L25.6012 5.39573C27.8408 6.29457 28.5713 8.41497 28.7218 10.239C28.8222 10.1918 28.9135 10.1215 28.9998 10.0269C29.3578 9.63441 29.9659 9.60684 30.358 9.96536C30.75 10.3239 30.7775 10.9327 30.4194 11.3252C29.8981 11.8968 29.2865 12.1565 28.6797 12.2198C28.5845 12.986 28.4034 13.673 28.1732 14.1505C26.4558 17.7116 23.4729 18.9542 20.7194 18.4457C18.0533 17.9533 15.6965 15.8214 15.167 12.9176C15.0717 12.3947 15.4178 11.8933 15.9401 11.7978C16.4624 11.7023 16.9631 12.0489 17.0585 12.5719C17.4351 14.6371 19.1341 16.1953 21.0681 16.5525C22.9147 16.8935 25.0761 16.1452 26.4417 13.3134C26.5688 13.0498 26.714 12.5257 26.7858 11.8613C25.8975 11.4586 25.1458 10.8152 24.737 10.3636L24.7155 10.3399L24.6957 10.3148C24.161 9.63898 23.7798 9.02295 23.5391 8.46749C23.3022 7.92077 23.1769 7.37574 23.2317 6.86707C23.2896 6.32899 23.5545 5.83923 24.0373 5.54801ZM26.6848 9.55154C26.468 8.57248 25.9954 7.76111 25.1703 7.31574C25.1933 7.41407 25.2338 7.54162 25.303 7.70127C25.4566 8.05581 25.7309 8.51931 26.182 9.09313C26.3135 9.23531 26.4866 9.39533 26.6848 9.55154Z" fill="white"/>
<path fill-rule="evenodd" clip-rule="evenodd" d="M1.69898e-06 3.70152C0.000948683 3.21191 0.397649 2.8153 0.886868 2.8153C1.37609 2.8153 1.77279 3.21191 1.77373 3.70152L1.77381 7.51759C2.97234 6.24557 4.67424 5.45355 6.54394 5.45355C10.1874 5.45355 13.1118 8.38161 13.1118 12.0057C13.1118 15.6297 10.1874 18.5818 6.54394 18.5818C2.9244 18.5818 0 15.6297 0 12.0057L1.69898e-06 3.70152ZM11.338 12.0057C11.338 9.36563 9.20466 7.22959 6.54394 7.22959C3.90719 7.22959 1.77381 9.36563 1.77381 12.0057C1.77381 14.6457 3.90719 16.8058 6.54394 16.8058C9.20466 16.8058 11.338 14.6457 11.338 12.0057Z" fill="white"/>
<path fill-rule="evenodd" clip-rule="evenodd" d="M44.9128 3.70152V12.0057C44.9128 15.6297 41.9884 18.5818 38.3689 18.5818C34.7493 18.5818 31.801 15.6297 31.801 12.0057C31.801 8.38161 34.7493 5.45355 38.3689 5.45355C40.2386 5.45355 41.9405 6.24557 43.139 7.51759V3.70152C43.1399 3.21191 43.5367 2.8153 44.0259 2.8153C44.5151 2.8153 44.9119 3.21191 44.9128 3.70152ZM38.3689 16.8058C41.0056 16.8058 43.139 14.6457 43.139 12.0057C43.139 9.36563 41.0056 7.22959 38.3689 7.22959C35.7321 7.22959 33.5748 9.36563 33.5748 12.0057C33.5748 14.6457 35.7321 16.8058 38.3689 16.8058Z" fill="white"/>
</svg>
