<svg width="26" height="30" viewBox="0 0 26 30" fill="none" xmlns="http://www.w3.org/2000/svg">
<path d="M13.9522 6.03905L13.9522 6.03905C12.9938 6.77338 12.1898 7.68972 11.5863 8.7355C11.3005 9.2306 11.0617 9.75133 10.873 10.2909L10.0944 12.5162C9.6965 13.6534 10.128 14.9152 11.1388 15.5706L13.3908 17.0309C14.2983 17.6194 15.4881 17.5232 16.2893 16.7967L18.1656 15.0953C18.6228 14.6807 19.0317 14.2157 19.3843 13.7092C20.0548 12.7461 20.5102 11.6501 20.7197 10.4955L20.7957 10.0765C21.0133 8.87735 21.0129 7.64882 20.7945 6.44985L20.61 5.43738L20.0417 5.54092L20.61 5.43738C20.4369 4.4869 19.5082 3.87099 18.5652 4.08129L17.705 4.27313C16.3596 4.57318 15.0958 5.16293 14.0015 6.00129L13.9522 6.03905Z" stroke="white" stroke-width="1.22308"/>
<path d="M10.8844 15.6924C10.6675 15.5517 10.3925 15.5356 10.1606 15.65L9.2743 16.0871C8.76365 16.339 8.72192 17.0512 9.19966 17.361L12.1604 19.2809C12.6239 19.5814 13.2407 19.2814 13.2905 18.7313L13.377 17.7755C13.377 17.7755 13.377 17.7755 13.377 17.7755C13.4015 17.5043 13.2739 17.2418 13.0454 17.0936L10.8844 15.6924Z" stroke="white" stroke-width="1.22308"/>
<circle cx="16.308" cy="9.92151" r="1.93375" transform="rotate(32.961 16.308 9.92151)" stroke="white" stroke-width="1.22308"/>
<path d="M18.7726 14.6241L18.873 15.0088C19.287 16.5951 19.0504 18.2811 18.2157 19.6921V19.6921C18.0951 19.8959 17.8037 19.9054 17.6701 19.71L15.9263 17.1602" stroke="white" stroke-width="1.22308"/>
<path d="M11.108 9.65424L10.7158 9.71951C9.09864 9.98867 7.65591 10.8925 6.70821 12.2303V12.2303C6.57134 12.4235 6.6815 12.6935 6.91446 12.7358L9.95386 13.2876" stroke="white" stroke-width="1.22308"/>
<path d="M15.3313 5.24259L15.996 5.40186C17.7728 5.82759 19.3523 6.84389 20.4762 8.28439L20.9409 8.88011" stroke="white" stroke-width="1.22308"/>
<path d="M10.5731 21.3786L10.5797 21.167C10.6005 20.5066 10.2745 19.8835 9.72012 19.524C9.16578 19.1646 8.46383 19.1211 7.86939 19.4095L7.69319 19.495C6.99113 19.8356 6.51757 20.5177 6.44388 21.2946L6.20002 23.8654C6.1445 24.4507 6.77709 24.8514 7.28254 24.551L9.46736 23.2527C10.1318 22.8578 10.5488 22.1511 10.5731 21.3786Z" stroke="white" stroke-width="1.22308" stroke-linecap="round"/>
</svg>
